<svg xmlns="http://www.w3.org/2000/svg" xmlns:xlink="http://www.w3.org/1999/xlink" viewBox="0 0 880.36 525.72"><defs><style>.cls-1{fill:none;}.cls-2{isolation:isolate;}.cls-3{clip-path:url(#clip-path);}.cls-4{fill:url(#radial-gradient);}.cls-11,.cls-14,.cls-5,.cls-8{mix-blend-mode:multiply;}.cls-5{opacity:0.63;}.cls-6{fill:#9c8080;}.cls-7{clip-path:url(#clip-path-2);}.cls-8{fill:url(#linear-gradient);}.cls-13,.cls-9{fill:#fff;}.cls-10{fill:url(#linear-gradient-2);}.cls-11{fill:#f6e8eb;}.cls-12{fill:url(#linear-gradient-3);}.cls-13{opacity:0.08;}.cls-14{fill:url(#linear-gradient-4);}.cls-15{fill:url(#linear-gradient-5);}.cls-16{fill:url(#linear-gradient-6);}</style><clipPath id="clip-path" transform="translate(38.98 15.22)"><rect class="cls-1" width="750" height="500"/></clipPath><radialGradient id="radial-gradient" cx="414.83" cy="260.59" r="444.5" gradientTransform="translate(38.98 23.89) scale(1 0.97)" gradientUnits="userSpaceOnUse"><stop offset="0" stop-color="#bc2c3e"/><stop offset="0.36" stop-color="#991c2f"/><stop offset="0.78" stop-color="#750c20"/><stop offset="1" stop-color="#68061a"/></radialGradient><clipPath id="clip-path-2" transform="translate(38.98 15.22)"><rect class="cls-1" width="750" height="500" transform="translate(750 500) rotate(180)"/></clipPath><linearGradient id="linear-gradient" x1="604.58" y1="-36.18" x2="70.38" y2="87.49" gradientUnits="userSpaceOnUse"><stop offset="0" stop-color="gray"/><stop offset="0.16" stop-color="#989898" stop-opacity="0.81"/><stop offset="0.55" stop-color="#d0d0d0" stop-opacity="0.37"/><stop offset="0.84" stop-color="#f2f2f2" stop-opacity="0.1"/><stop offset="1" stop-color="#fff" stop-opacity="0"/></linearGradient><linearGradient id="linear-gradient-2" x1="-325.27" y1="38.93" x2="453.49" y2="38.93" gradientTransform="translate(431.75 103.13) rotate(180)" gradientUnits="userSpaceOnUse"><stop offset="0" stop-color="#fdfdfd"/><stop offset="1" stop-color="#e6e6e6"/></linearGradient><linearGradient id="linear-gradient-3" x1="103.68" y1="64.54" x2="248.7" y2="263.58" gradientTransform="translate(431.75 103.13) rotate(180)" gradientUnits="userSpaceOnUse"><stop offset="0" stop-color="#a1151b"/><stop offset="1" stop-color="#68061a"/></linearGradient><linearGradient id="linear-gradient-4" x1="144.09" y1="631.95" x2="751.16" y2="359.23" xlink:href="#linear-gradient"/><linearGradient id="linear-gradient-5" x1="844.6" y1="536.27" x2="556.1" y2="414.71" gradientTransform="translate(1222.13 920.61) rotate(180)" xlink:href="#linear-gradient-2"/><linearGradient id="linear-gradient-6" x1="409.57" y1="466.98" x2="427.74" y2="554.78" gradientTransform="matrix(1, 0, 0, 1, 0, 0)" xlink:href="#linear-gradient-3"/></defs><g class="cls-2"><g id="BACKGROUND"><g class="cls-3"><rect class="cls-4" x="38.98" y="15.22" width="750" height="500"/><g class="cls-5"><path class="cls-6" d="M-2,103.37c.92-1.93,2.31-7.4,4.85-7.65,1.19-.12,2.68.93,3.73,1.46a20,20,0,0,1,4.28,2.89c2.09,1.84,4.37,3.34,7.26,3.35,3.09,0,5.85-1.93,9-1.33,1.49.28,2.56,1.52,4,1.77s3.23-.8,4.74-1a6.31,6.31,0,0,1,7,4.29c1.13,3-.43,5.87.42,8.73.4,1.36,1.46,2,2.09,3.25s.39,2.67.5,4.08c.15,2,1,2.72,3,2.78,3.06.1,5.22.34,7.72,2.29A54.51,54.51,0,0,0,65.23,134c3.1,1.59,6.07,2.62,7.62,6a48.66,48.66,0,0,1,1.72,4.78c.3.87.81,3.52,1.81,3.9s1.53-.84,2.3-1.29c1.26-.75,2,0,2.78,1,2,2.61,3.05,6.56,6.13,8.2,1,.52,1,.4,1.23-.7a14.69,14.69,0,0,0,0-2.2c.05-1.58.45-2.85,2.08-3.44,3.48-1.27,1.49,2.7,2.09,4.2.47,1.18,2.19,1.55,3.09,2.36a10.75,10.75,0,0,1,2.41,3.44,14.05,14.05,0,0,0,5.38,6.38,15.59,15.59,0,0,1,5.63,6.13c1.48,2.91,4.53,5.08,6.9,7.29,2.12,2,4.68,5.52,7.56,6.31s5.81-1.46,8.94-.52a7.39,7.39,0,0,1,3.3,2.36c.78.85,3,3,2.74,3.88-.39,1.34-2,1.09-2.95,1.26a8.24,8.24,0,0,0-3.39,1.85c-.89.65-2.5,1.53-2.48,2.84s1.33,1.36,2.27,1.9c2.41,1.39,1.37,4,2.45,6.16s3.12,2,5.15,1.9a9.63,9.63,0,0,1,10.25,8.67c.33,2.61-1.13,5.73.07,8.14,1.38,2.8,4,1,6.23,1.76,2.48.87,2.75,4,5.52,4.47,1.24.22,2.53-.15,3.73.34a5.94,5.94,0,0,1,2.63,2.77A83.93,83.93,0,0,0,175,242.6c2.11,2.58,2,4.48.79,7.45-1.38,3.4-1.06,6.82-.3,10.33a94.48,94.48,0,0,1,1.84,11.37c.27,2.92-1.41,14.31-5,17-3.75,2.81-16.34,1.18-18.74.79-1.83-.29-4.09-3.86-5.11-5.23-1.32-1.75-2.31-3.91-4.13-5.22a16.44,16.44,0,0,1-2.32-1.55c-.78-.78-1.32-1.81-2.06-2.64a30.17,30.17,0,0,0-6.08-5.6c-2.12-1.28-4.61-.63-6.94-1.07-4.27-.82-7.94-4.09-10.4-7.55-1.36-1.92-1.47-4.2-2.34-6.32-1-2.5-3.28-2.39-5.29-3.87a24.47,24.47,0,0,1-8.21-11.57,9.33,9.33,0,0,0-3.17-4.35c-1.73-1.27-4.23-1.34-5.78-2.75-1.38-1.26-1.35-3.27-1.67-5-.46-2.54-1-6.51-2.8-8.47-1.45-1.58-3.49-2.35-3.67-4.79-.07-1,.54-2,.32-3.05-.31-1.38-1.33-1.3-2.26-2.12-1.49-1.33-1.92-4.24-2.7-6-1.07-2.44-3.2-3.57-5-5.37-3.41-3.35-5.5-7.85-9.23-10.91-1.64-1.34-3.39-2.24-4.27-4.27-1-2.2-.67-4.77-1.3-7.08a61,61,0,0,1-1.66-7.88,8.93,8.93,0,0,0-2.65-5.48c-1.72-1.61-4.1-2.25-6.14-3.35a26.69,26.69,0,0,1-6.11-4.44,10.71,10.71,0,0,1-3.49-6.13c-.34-1.93-.74-3.58-2.77-4.3s-3.74-1.08-4-3.76c-.23-2.89-.89-3.59-3-5.55-1.68-1.59-1.66-4.11-3.69-5.64a14.46,14.46,0,0,0-5.68-2.13c-2.65-.6-4-1.16-5.53-3.47A44.58,44.58,0,0,0,9.22,116c-2-2-4-4-6.05-6C1.56,108.47-2,105.72-2,103.37Z" transform="translate(38.98 15.22)"/><path class="cls-6" d="M752,331.29c-.79,1.72-1.19,3.71-3.29,2.32-2.6-1.71-4.93-4.26-7.26-6.33s-4.28-4.67-7.17-5.53c-2.45-.73-4.83,0-7.27.37-3.11.52-5.08.14-5.82-3.21-1.1-5-.91-10.29,3.4-13.63a6.62,6.62,0,0,1-6-6.08c-.23-1.46,0-3.1-.51-4.5-.62-1.71-1.95-2-3.5-2.57-4.35-1.67-5.89-7.25-7.24-11.27-.53-1.58-.76-4.05-2.22-5.12s-4.41-1.43-6.24-1.91c-4.71-1.23-9.32-1.86-13.76-4-4.18-2-7.8-4.65-12.28-6.06s-9.39-1.83-14-3c-1.85-.47-4.11-.9-5.67-2.11s-2.69-3.06-4.62-4.18c-3.84-2.21-8.57-3.34-12.82-4.45-2.87-.74-6.83-2.36-8.34,1.15-.71,1.67-.77,3.35-2.25,4.6a4.15,4.15,0,0,1-4.86.5c-3.15-2-1.89-7.28-2.75-10.37a8.59,8.59,0,0,0-6.09-6.11c-2.37-.71-11.5,0-7.34-4.55,2.82-3.11,8.52-1.49,12.16-1.11,4.41.48,8.08-1.25,11.87-3.29,1.31-.7,4.35-2.74,3.2-4.37s-4.58-1.22-5.93-.5c-2.23,1.2-3.59,2.28-6.29,2.16a22.87,22.87,0,0,1-7-1.65c-4.11-1.57-9.66-4.5-11.35-8.75-.75-1.9-1.75-2.24-3.76-2.16a61.45,61.45,0,0,1-7.18.13c1.17-2,3.25-3.75,3.72-6.06.38-1.85-1-4.71,1.06-5.81,1.79-.94,4.36-.41,6.33-.82a7.77,7.77,0,0,0,5.15-3.28c1.3-2,1.14-3.43,3.93-3.14,3,.31,5.53-1.3,8.41-1,5,.59,9.15,7.94,14.52,5.31,1.48-.72,3.3-3.16,5.14-2.25s2.12,5.54,2.42,7.34c1.09,6.53.9,13.21,1.06,19.81.05,1.82,0,5.31,1.76,6.49s3.33-1.3,4.84-1.93c3.8-1.58,4.48,8,5.91,10.12,2.55,3.78,8.4-.22,11.13-1.94a33,33,0,0,0,5.86-4.67c2-2,3.56-4.34,5.85-6.06s4.76-2.73,7.05-4.26c2.64-1.76,5.18-3.67,7.76-5.51,4.75-3.37,9.62-7.83,15.87-6.66,2.91.55,5.67,2,8.41,3.06,3.32,1.31,6.66,2.58,10,3.87A26.41,26.41,0,0,1,730,220a29.3,29.3,0,0,0,3,2.07c2.42,1.11,5.1.83,7.6.2,3.18-.8,9.67-3.52,10.83,1.36.63,2.63.11,5.91.06,8.59C751.35,235.68,752,327.6,752,331.29Z" transform="translate(38.98 15.22)"/><path class="cls-6" d="M391,175.57c-1.4-.49-2.86-1.1-3.13-2.73-.11-.71.34-1.66-.06-2.3-.52-.83-1.6-.72-2.43-.56-1.55.3-3.31,1.9-4.92,1.72s-1.87-2.18-2.41-3.37a7.82,7.82,0,0,0-3-3.71c-1.69-1-4.26-.61-4.53-3.1-.38-3.61,4.72-1,5.44-4.08,1-4.52-3.56-5.63-6-8.11-1.5-1.54-.86-3.24-1.69-5s-2.78-1.56-4.14-2.67c-1.62-1.33-1.53-3.43.37-4.33,2.23-1.07,2.53-1.12,2.88-3.61.26-1.8,1.75-2.5,2.35-4.15a5.73,5.73,0,0,0,.39-2.92c-.4-.92-2.94-1.69-4-1.94a45.89,45.89,0,0,0-15.83-1.12,30.89,30.89,0,0,0-7.1,1.7c-2.26.87-3.69,2.65-5.26,4.42-3.43,3.86-6.54,7.86-10.39,11.34-1.94,1.75-3.93,3.42-5.93,5.1-1.16,1-2.86,2-3,3.71-.11,1.89,1.3,4.05,2,5.73,1.1,2.57,1.68,3.86-.42,6a62.63,62.63,0,0,0-4.3,5c-1.86,2.31-3.24,3.77-6.21,4.39-4.69,1-10.72,3-15.46,1.71a22.28,22.28,0,0,0-5.36-1.18,49.06,49.06,0,0,0-6.53.12,15.25,15.25,0,0,0-6.34,2c-2.2,1.35-3.63,3.56-5.89,4.84-4.48,2.53-10.12,1.58-15,1.18-2.86-.24-4.73-.35-6.91-2.25-1.84-1.6-3.72-2.25-5.8-3.47a20,20,0,0,1-5.21-4.53c-.8-1-1.42-2-2.14-3-.93-1.29-2.19-1.77-3.68-2.54-2.46,5.7-5.42,10.69-5.33,17.07,0,2.82-.08,6.27.75,9a17.82,17.82,0,0,1,.55,9c-.54,3.08-.12,4.5,2.1,6.65,1.83,1.77,2.19,4.15,2.8,6.5.37,1.41.5,2.37,2.1,2.4,1.88,0,3.92-1.35,5.79-.88,1.64.41,2,2.09,2.19,3.57.45,3.09.3,6.25,1.11,9.29.35,1.29,1.16,2.41,1.54,3.65a20.42,20.42,0,0,1,.34,3.69c.13,1.34-.07,3.23.43,4.47s1.43,1.29,2.77,1.61c2.65.64,4.91,2.37,7.68,2.3,3.25-.08,6.23-1,9.51-.49,2.6.44,5.34.86,6.49,3.4.85,1.89,1.81,4,4,4.53s4.38-1,6.64-1.24c2.5-.23,5.16.85,7.51-.43,1.93-1.06,4.05-3.47,6.58-3,1,.17,2.09,1.08,3.08,1.42a26.39,26.39,0,0,0,4.81.73c2.76.42,4.77,2.48,7.27,3.52a11.69,11.69,0,0,1,5.69,4.43c1,1.41,2.89,4.69,4.87,4.91a3.88,3.88,0,0,0,2.32-.82c1.42-.86,2.42-1.56,4.17-1.49,2.28.09,4.34,1.16,6.55-.05,1.09-.6,1.68-1.67,2.68-2.36a13.55,13.55,0,0,0,3.21-2.39c1.75-2.13,2.18-5.33,2.93-7.92,1-3.49,2-7,3.21-10.43.68-2,2-4.28,1.87-6.44-.2-2.81-3.42-3.08-4.13-5.58-.67-2.33,2-3.73,3.3-5.23,1.58-1.82,2.14-4.62,4.49-5.66s5.36.32,7.78-.83a11.3,11.3,0,0,0,5-5.32c1.21-3,.57-6.83.65-10s-.11-6.22,1.17-9c2.27-4.92,7.54-6.06,12.5-5.43,3.13.4,5.75,1.05,8.83-.22C391.36,179.91,394.87,176.9,391,175.57Z" transform="translate(38.98 15.22)"/><path class="cls-6" d="M411.15,208.73c4.38-.84,5.41,2.86,8.34,5.05s5.58,2.52,8.52,0c2.38-2,2.07-7.08,5.83-7.48a8.19,8.19,0,0,1,2.83.67,8.28,8.28,0,0,0,3.77.05c1.93-.4,3.88-1.87,5.84-1.93,1.71,0,2.13,1.5,3.57,1.9s3.69-.55,4.92-1.39c2.64-1.77,4.18-5.88,8-5.37a3.59,3.59,0,0,1,2.95,3c.31,1.33.44,4.58-.72,5.2-1.34.7-4.4-.46-5.85-.53-2.34-.12-5.1,0-7.1,1.4-2.91,2-3.58,5.83-6.52,7.9-3.7,2.6-8.31,4-12.29,6.13-2.56,1.38-1.9,2.45.16,4s4.06,3.12,6,4.75a10.61,10.61,0,0,1,3.59,5c.82,2.2,2.21,3.57,3.52,5.43,1.05,1.49.65,2.85.68,4.56a10.74,10.74,0,0,0,1.29,5.08c1.91,3.41,6.25,4.4,8.09,7.74a4.23,4.23,0,0,1-.21,3.89c-.89,1.95-2.5,2.1-4.46,2.23-1.63.11-4-.47-5.48.44s-2.22,3.45-3.14,4.88c-2.27,3.55-6.84,2.17-7.84-1.68-.62-2.34-.9-4.62-2-6.82a18.56,18.56,0,0,0-4.61-5.63c-1.86-1.62-4.26-2.93-5.85-4.82s-.79-3.46.75-5.11c1.81-1.93,1.27-2.63.82-4.94-.41-2.16,1.33-4,2.48-5.66-3.49.36-10.95-.38-12.52,3.77-.79,2.12,0,4.83.32,7,.44,3,1.61,6.39,1.44,9.44-.16,2.62-1.66,4.86-2.07,7.41s1.4,4.27,1,6.6c-.32,1.94-2.42,3.92-2.19,5.86.13,1.09,1,1.69,1.75,2.42.88.91,1.56,2,2.35,3a44.36,44.36,0,0,1-10.44,2.6,79.86,79.86,0,0,1-10,.76c.9-3.38,1.77-6.73,2.88-10.05a53.72,53.72,0,0,0,2.77-9.68,8.83,8.83,0,0,0-.27-4.27c-.43-1.19-1.34-2.07-1.82-3.23-.86-2.11-.69-4.93-2.93-6.22-1.79-1-3.89-.16-5.78-.66s-1.9-1.89-2.18-3.49c-.47-2.76-2.19-5-2.68-7.67a4.3,4.3,0,0,1,.5-3c.76-1.3,2.6-1.84,3.27-3.07.45-.84.15-2.1.44-3.05a10,10,0,0,1,1.81-3.2c1.79-2.32,3.58-4.23,4.49-7.11a51.63,51.63,0,0,0,1.49-9.27c.17-1.44,1-7.45,3.45-5.57.45.35,1.26,2.35,1.94,2.39.84,0,1.72-1.67,1.56-2.34s-.87-1.06-1.16-1.65a13.08,13.08,0,0,1-.57-2.6c-.38-1.73-.79-3.46-1-5.21-.47-3.17.79-5.14,2.78-7.49s2.61-5.13,4.45-7.56a9.18,9.18,0,0,1,2.31-2.5c1.27-.69,2.26.23,3.54.28a6,6,0,0,0,3.78-1.26c1-1,.81-2.21,1.14-3.42.69-2.54,3.76-2.16,5.81-2.78,3.11-.94,4.1-1,6.51,1.32,2.17,2.06,4.17,1.54,6.83,1.09,3.35-.56,5.44,1.26,8.5,2.19,6.67,2,13.07.46,19.87.34,2.76-.05,5.22.28,7.73-1.09s4.69-3.77,6.69-5.82a19.6,19.6,0,0,0,3-3.65c.64-1.07,1-2.39,1.92-3.26a4.09,4.09,0,0,1,5.83.52c3,3.84-1.59,10.54-4.82,12.62-1.1.71-2.27,1.12-3,2.27s-.81,2.5-1.69,3.58c-1.74,2.13-5,2.45-7.47,3.1a29.23,29.23,0,0,1-5.44,1.27,46.21,46.21,0,0,1-5.26-.27c-4-.24-8-.51-12.07-.72-4.3-.22-8.61-.38-12.93-.4-1.79,0-3.57-.23-5.35-.29-1.95-.06-3.57.79-5.43,1.21-3.56.8-6-.95-9.41-1.36a10.14,10.14,0,0,0-7.83,2.47,5.79,5.79,0,0,0-2.43,3.61,31.2,31.2,0,0,0,.2,5.37C410.74,200.15,411,204.44,411.15,208.73Z" transform="translate(38.98 15.22)"/><path class="cls-6" d="M318.55,337.45a80.85,80.85,0,0,0-8.3-3.68c-2.64-1-5.4-1.66-7.94-2.91a17.81,17.81,0,0,0-7.45-2c-2.76-.07-5.16,1.19-7.82,1.35s-5.4.36-8.09.36c-3.27,0-6.34-.9-9.57-1.29-2.69-.32-5.39-.54-8.08-.82a33.5,33.5,0,0,1-9.13-2.38c-5.19-2-10.62-5.14-16.11-6.14-5.77-1-11.43,1.93-17.21,1.75-5.93-.18-11.58-2.82-17.44-3.54-3-.37-6-.49-9-.74-2.33-.2-5.52,0-7.62-1.14-3.4-1.87-15.49-6.87-17.21-6.54s-3.56-2.65-1.91-3.65c1.46-.87,3.43-1.31,4.72-2.38s.9-2.29,1.32-3.64a19.85,19.85,0,0,1,2.51-4.64c1.3-2.09,2.2-6,5.33-5.23,3.46.89,5.56,3.64,9.41,2.57,3-.84,5.94-3.56,9.21-2.26,2.94,1.18,3.65,4.63,7.12,5s7.43-.84,10.81.37c3.2,1.13,3.68,5.58,5.57,8s4.65,3.09,7.65,2.55a33.18,33.18,0,0,1,11.92-.41c3.25.59,7.7,1.13,10.18-1.68,1.81-2.05,10.37-3.15,12.85-1.86,2.69,1.4,5.89,1.44,8.84,1.8,3.2.38,8-.32,9.83,2.95a34.55,34.55,0,0,0,2,3.88,15.43,15.43,0,0,0,3.55,3.29c3.16,2.22,6.5,4.1,10.4,4.53a24.52,24.52,0,0,0,6.46-.19c1.92-.3,4.24-1.26,6.21-.93a2.83,2.83,0,0,1,2.4,2.52,44.29,44.29,0,0,1,.62,6.71c.1,2,.09,3.5,1.22,5.22.52.79,1.13,1.53,1.7,2.29C318.28,335.62,319.54,336.38,318.55,337.45Z" transform="translate(38.98 15.22)"/><path class="cls-6" d="M467.31,363.57c0-2.66-.48-5.48.5-8a14.89,14.89,0,0,1,4.47-6.37c3.63-2.73,8.46-3.72,12.36-6.06a20.92,20.92,0,0,0,5.5-4.63,13.78,13.78,0,0,1,5.68-4.46c5.05-1.92,11.23-.65,16.49-.45,2.39.09,5.28.59,7.62,0,2.58-.66,3.12-3,5-4.48a3.22,3.22,0,0,1,2.12-.75,4.18,4.18,0,0,1,1,.16c1,.23.94.16,1,1.07.1,1.87-1.78,4.17-3.08,5.28-3.47,2.94-8.42,3.3-12.26,5.69-4.33,2.71-9.65,1.79-13.83,4.77-5.26,3.75-10.15,8.27-15.13,12.4-1.24,1-2.51,2-3.67,3.14-1,1-1.95,2.27-3.37,2.65s-3.59.1-5.1.1Z" transform="translate(38.98 15.22)"/><path class="cls-6" d="M538,155c.55,3.91,2.26,9,1,12.88-.52,1.63-4.8,7.93-1.88,8.7,1.87.49,1.6-1.34,2.18-2.35.78-1.34,2.29-1.9,3-3.54,1-2.46,1.12-6,4.61-5.88,4.39.17,3.39,5.22.72,7.15-1.12.8-3,1.26-2.89,3,.11,1.27,1.81,2.82,2.56,3.78a12.9,12.9,0,0,0,3,3c1.23.81,3.23.82,3.75,2.36,1.31,3.84-2.4,4.17-5,2.91-2.16-1.06-3.9-3.05-6.42-3.26-1.64-.13-1.5.42-1.43,1.88l.18,3.88a56.8,56.8,0,0,0,.39,7c.4,2.27,1.18,4.55,1.76,6.78-5.55-.32-8.33-6.19-7.67-11a9.56,9.56,0,0,0-1.51-7.35c-.73-1-4.62-3.69-4-4.78s1.76-.78,2-2.11-.73-2.87-1.19-4c-.74-1.81-1.36-2.87-1.07-4.82a19.12,19.12,0,0,0,0-4.66C529.69,159.57,533.25,155.67,538,155Z" transform="translate(38.98 15.22)"/><path class="cls-6" d="M573.29,249.73c-.36-1.6.05-3.08-1.61-3.75a11.16,11.16,0,0,0-5.48-.17c-2.15.45-3.76,1.61-6.07,1.17-1.93-.37-3.07-1.89-4.83-2.49-2.32-.79-3.64,1-5.55,1.88a6.11,6.11,0,0,1-4.69.23c-2.17-.71-3.46-1.16-5.57.1-.94.55-3.14,2.17-4.15,1.33s-.28-2.61.11-3.45c.8-1.75,2.13-1.68,3.78-2.45,1.81-.84,3.31-2.16,5.07-3.07a9.4,9.4,0,0,1,5.51-.77c2.93.33,6.08,1.73,9.06,1.46,2.37-.22,3.57-2.51,4.78-4.3.61.5,1.59.82,2.05,1.5s.36,1.52.86,2.19c.9,1.22,2.46,1.39,3.85,1.53,4,.4,7.6-.18,11.19,2.15,2.91,1.9,6.24,4.44,4.85,8.23-.61,1.64-.84,1.46-2.44,1.1l-3.52-.79Z" transform="translate(38.98 15.22)"/><path class="cls-6" d="M441.36,340.06c-2.11-1.12-4.43-3.19-6.9-3.2a16.9,16.9,0,0,0-4.14.94,19.6,19.6,0,0,1-4.65.36c-3.31,0-6.6-.16-9.9-.24a8.52,8.52,0,0,0-3.81.61,16.66,16.66,0,0,1-4.52.47,17.88,17.88,0,0,1,4.38-9.28,4.5,4.5,0,0,1,3.24-1.31c1.74,0,2.49,1.08,3.92,1.8,2.82,1.43,6.29.13,9.21,1.87,1.19.7,1.89,1.86,3.32,2a5.73,5.73,0,0,0,3.85-1c2.17-1.54,3.83-2.88,6.73-2.22,2.5.58,3.58,4,6.28,3a18.4,18.4,0,0,0,6.89-5.07c.78-1,1.28-2.76,2.73-2.89.75-.07.93.1,1.21,1a3.72,3.72,0,0,1-.1,2.42,14,14,0,0,1-6.57,6.72c-1.84.8-3.81.87-5.66,1.74S443.24,339.36,441.36,340.06Z" transform="translate(38.98 15.22)"/><path class="cls-6" d="M363.31,332.46c3.84,1.22,7.52,2.58,11.62,2.51,5.49-.09-.89-4.25-2.36-5.49-2-1.73-3.67-5,.26-5.46,3.25-.38,3.3,2.52,4.95,4.49,1.21,1.46,2.76,1.21,4.5,1,2.71-.34,8.4-1.26,9.91,1.67,1.13,2.18,1.68,8.86-1.86,9.12s-7.29-1.83-10.84-2.21c-4.57-.49-8.21,1.58-12.58,2s-8.83,1.76-13.29.9c.92-2.39,1.77-5.13,3.8-6.84C359.05,332.77,361.28,332.68,363.31,332.46Z" transform="translate(38.98 15.22)"/><path class="cls-6" d="M172.24,220.78c.89-.4,2.19-1.64,3.22-1.37,1.3.34,2.31,3.45,2.67,4.5,1.06,3.15,1.09,6.87,4.44,8.39,1.59.72,2.84.4,4.43.7a2.12,2.12,0,0,1,1.73,3c-.63,1.76-1.88,2.57-1.51,4.68.26,1.45,1.19,2.69,1.61,4.11a23.65,23.65,0,0,1-6-2.28c-2-1-4.28-1.88-6-3.25-3.11-2.45-1.19-7.13-5.17-8.7-2.57-1-10.31-.77-7.87-5.48.83-1.6,1.69-4.14,2.95-5.45,1.44-1.48,3.89.9,5.38,1.78C172.16,221.2,172.2,221,172.24,220.78Z" transform="translate(38.98 15.22)"/><path class="cls-6" d="M651.35,284a17.37,17.37,0,0,1-.3,5.29c-.44,1.89-1.45,3.16-2.31,4.81-1.21,2.34.2,5.31-3.26,6-1.09.21-2.34-.13-3.18.79s-.33,2.3-1.81,3.11c-3.77,2.06-2.63-5-2.56-6.64.08-1.86-.13-4.27.51-6s2.21-2.28,3-3.7c1.4-2.39-3.36-5.49-.78-7.12,1.11-.7,2.75-.26,4-.66,1.53-.51,1.7-1.69,2.83-2.53C651.52,274.28,651.27,282.22,651.35,284Z" transform="translate(38.98 15.22)"/><path class="cls-6" d="M397.66,347.15c3.13-1.37,5.8-2.26,8.85-.19a37.25,37.25,0,0,0,8.13,4.42,4,4,0,0,1,2.54,2c.56,1.2.32,2.34,1.54,3.17,1.41,1,4.6.5,5.35,2.25a2.92,2.92,0,0,1-.7,2.79c-1,.72-2.39-.3-3.48-.37-2.56-.16-4.86,3.7-7,.83-.79-1-1.06-2.4-1.88-3.47a12.93,12.93,0,0,0-2.94-2.68c-1.66-1.15-4.53-3.54-6.54-3.29-2.8.34-7.68,2.61-9.65-.36-1-1.44-.66-2.38.69-3.42a11.6,11.6,0,0,1,2.5-1.29C395.89,347.21,397.22,346.24,397.66,347.15Z" transform="translate(38.98 15.22)"/><path class="cls-6" d="M717.48,313.49c-.79,1.88-1.9,7.09-4.18,7.5-1.21.22-1.79-.47-2.86.49-.87.77-1,2.11-2,2.74s-2.13.26-3.26.11a4.93,4.93,0,0,0-3.42.79c-1.79.86-4.49.64-4.12-2,.75-5.3,6.19-9.94,9.88-13.29,1.75-1.59,4-3.57,6.5-2.58a4.5,4.5,0,0,1,2.42,2.41C716.92,310.76,716.51,313.09,717.48,313.49Z" transform="translate(38.98 15.22)"/><path class="cls-6" d="M515.16,258.49c-1.21-2.51-2.2-5.37-3.85-7.64-1.18-1.63-4.44-2.35-2.6-4.56a6.84,6.84,0,0,1,5.53-2.36c2.76,0,5.08-1.11,7.77-1.62a6.17,6.17,0,0,1,2.2-.33c.66.21.56.42.72,1.36a23.72,23.72,0,0,1,.09,3.26c.08,2.15,2.45,2.73,2.42,4.84,0,2.95-3.38,3.09-5.49,3.4C519.21,255.26,517.38,257,515.16,258.49Z" transform="translate(38.98 15.22)"/><path class="cls-6" d="M345.74,330.85c.38-1.83,1.45-3.51,3.42-3.81s5.32,1,6.33,2.67c1.28,2.11-2,2.89-3.06,4.23-1.32,1.71-.05,4.43-2,5.59s-5.76,1-8,1.15c-1.06.09-2.47.38-3.32-.51-.65-.69-.4-.31-.11-1.21a3.2,3.2,0,0,1,.85-1.36c1.5-1.25,3.94-1.16,3.75-3.67-.06-.88-.76-1.32,0-2.17A4.83,4.83,0,0,1,345.74,330.85Z" transform="translate(38.98 15.22)"/><path class="cls-6" d="M41.27,177.4c-.12,1.51.64,4-1.29,4.51s-3.21-1.48-4.11-2.82c-1.36-2-2.71-4.07-4.21-6-1.17-1.49-3.62-3.29-3.38-5.39.5-4.29,6.28-3.6,8.2-1,1.37,1.87,2.69,3.7,4.13,5.52s1.26,3.13,0,4.89Z" transform="translate(38.98 15.22)"/><path class="cls-6" d="M464.45,221.41a29.17,29.17,0,0,0-4.06-.46c-.5,0-1.31.15-1.71-.29-.63-.69,0-3.47,0-4.38-.85.64-2.24,2.18-3.29,2.48-1.56.45-1.95-1.23-1.85-2.61.16-2.38,1.42-4.25,3.92-4.44,1.52-.12,2.92.57,4.43.52s3.17-1.07,4.55-.61,1.36,1.67,1.85,2.71c.74,1.55,1.48,3,2.09,4.62C468.35,219.69,466.41,220.54,464.45,221.41Z" transform="translate(38.98 15.22)"/><path class="cls-6" d="M207.78,235.17a6.65,6.65,0,0,1,6.32,7.69c-.17.92-.76,4.37-1.8,4.78-1.49.58-2.6-2.07-4.22-1.55s-1.45,3.43-3.77,2.11-1.47-3.85-1-5.83c.26-1.17.62-2.36.78-3.55a7.1,7.1,0,0,1,.27-2.2C204.94,235.23,206.4,235.18,207.78,235.17Z" transform="translate(38.98 15.22)"/><path class="cls-6" d="M321.72,328.43c3.84-1.25,7.48-2.88,11.42-1,1.33.64,2.73,1.62,2.58,3.27-.18,2-2,2.45-3.45,3.32s-1.42,2.52-2.61,3.3a4,4,0,0,1-4.36-.55c-.63-.65-.5-1.45-.87-2.25a4.64,4.64,0,0,0-1.67-1.85c-.63-.45-1.4-.71-2-1.16a11.29,11.29,0,0,1-2-2.24l2.39-1.75C321.35,327.84,321.53,328.14,321.72,328.43Z" transform="translate(38.98 15.22)"/><path class="cls-6" d="M64.74,223.27a10.94,10.94,0,0,1-4.62-1c-1.83-1.06-1.91-2.85-3.09-4.38s-3.06-2.72-2.47-5c.28-1.07.95-1.43.59-2.58-.25-.8-1.28-1.46-1.36-2.27-.15-1.66,2.17-2,3.36-1.84,2,.32,2.91,1.54,3.84,3.18,1.14,2,3,4.14,3.63,6.4S64.74,221,64.74,223.27Z" transform="translate(38.98 15.22)"/><path class="cls-6" d="M573.2,195.42c1.28-1.71,2.12-2.8,4.27-3.12,2.45-.37,3.77-2.46,6.14-3s3.72,1,5.33,2.34c1.84,1.49,4.52,2,6.65,3-.87,1-1.09,2-2.56,2.12a12.14,12.14,0,0,1-4-.62c-2.54-.57-4.38-.26-6.13,1.77-1.24,1.44-3.27,3.37-4.79,1-.67-1-.7-2-1.87-2.67A14.27,14.27,0,0,0,573.2,195.42Z" transform="translate(38.98 15.22)"/><path class="cls-6" d="M294.46,313.5l-4.61-7.36c1.66-.06,3.15-.63,4.75,0a7.79,7.79,0,0,0,5.27.58c1.77-.4,3.5-1,5.28-1.31,2.43-.45,2.93.37,4.74,1.74a8.32,8.32,0,0,1-3.92,2.77c-1.74.63-1.94,1.58-3.13,2.74s-2,.16-3.58,0A11.13,11.13,0,0,0,294.46,313.5Z" transform="translate(38.98 15.22)"/><path class="cls-6" d="M484.27,221.58c2.1.32,4.05,1,6.1.15a25.13,25.13,0,0,0,2.5-1.73,10.36,10.36,0,0,1,3.7-.77c0,1.43.7,4.18-.5,5.08s-3.22.05-4.42.11c-1.51.07-2.09,1.2-3.38,1.49s-2.87-.47-4.35.09-1.88,2.16-3.36,2.53a1.9,1.9,0,0,1-2.5-1.85C477.69,223.33,481.59,221.69,484.27,221.58Z" transform="translate(38.98 15.22)"/><path class="cls-6" d="M460.61,282.41c-1.32.12-3.77-.14-4.67,1.08-.5.66-.26,1.32-.32,2.06-.11,1.29-.73,1.7-1.66,2.66-.58-.87-1.07-1.21-1.16-2.23a12.41,12.41,0,0,1,.38-3.13c.49-2.56,1.83-3.72,3.25-5.72,1.18-1.67.95-3.57.91-5.51a6.37,6.37,0,0,1,2.37-5.45c.8.94,3,2.51,3.19,3.78s-1.45,2.07-2.26,2.83C457.52,275.67,459.69,279,460.61,282.41Z" transform="translate(38.98 15.22)"/><path class="cls-6" d="M672.34,219.06c-.94-.78-2.21-1.22-2.14-2.67.08-1.67,2.08-2.26,3.32-2.88,1.55-.77,2.68-1.5,4.43-1.35s3.81.43,5.69.7c1.1.16,3.44.21,2.77,2.15-.4,1.17-2.53,1.31-3.51,1.55C679.38,217.41,675.86,218.23,672.34,219.06Z" transform="translate(38.98 15.22)"/><path class="cls-6" d="M453.28,274.53c-.49,2.53-.42,8.08-4,8.19-4,.13-2.45-5.22-1.32-7.19s-.88-5,1.58-6.18a2.15,2.15,0,0,1,3.08,1.09C453,271.27,452.83,274.45,453.28,274.53Z" transform="translate(38.98 15.22)"/><path class="cls-6" d="M415.36,294.07a39.08,39.08,0,0,1,0-4.84c.1-.74.89-3.05,1.86-3.11.65,0,2.15,1.79,2.4,2.35a8.67,8.67,0,0,1,.33,4.63c-.31,2-1.6,6.69-3.66,7.49C412.8,301.93,416.18,294.26,415.36,294.07Z" transform="translate(38.98 15.22)"/><path class="cls-6" d="M347.42,253c3.64.06,1.25,4.22.42,5.64A11.38,11.38,0,0,1,345.4,262c-1.35,1.07-2.47.55-4,.32.34-1.23.7-2.42,1.14-3.63s.41-2.16.76-3.23C343.94,253.57,345.5,253,347.42,253Z" transform="translate(38.98 15.22)"/><path class="cls-6" d="M626,279.2a10,10,0,0,1-1.49,5.81c-1.23,2.11-2.12,2.41-4.29,3.08a6.13,6.13,0,0,1,0-3.29,35.07,35.07,0,0,0,1.61-3.72c.27-1.17.08-2.51.38-3.63.37-1.4,1.47-1.63,2.71-2.33A8.07,8.07,0,0,1,626,279.2Z" transform="translate(38.98 15.22)"/></g></g></g><g id="OBJECTS"><g class="cls-7"><path class="cls-8" d="M-21.73,185.79C0,196.88,103.55,217.21,210.57,146.21,319.16,74.17,375,44.59,518.34,55.9,749.11,74.11,757-2.82,757-2.82H-21.73Z" transform="translate(38.98 15.22)"/><path class="cls-9" d="M-21.73,115.55c14.31,29.93,21.64,39.53,61.62,32.82C83.18,141.1,213,83,271.81,60.44c80.27-30.76,153-35.5,246.53-16.94C658.65,71.35,732,51.64,757,14.15V-15.22H-21.73Z" transform="translate(38.98 15.22)"/><path class="cls-10" d="M-21.73,110.76C-14.14,143,26.68,150.27,65.56,138c61.9-19.46,148.15-58.4,207.15-80.68C353.16,27,438,23.42,519.34,41.58,691.33,80,755.41,10.91,757,9.58v-24.8H-21.73Z" transform="translate(38.98 15.22)"/><path class="cls-11" d="M-22.12,90.19C17.67,107.33,65.73,109.68,109.12,102,173.76,90.63,233,61.32,293.77,42.94c81.17-24.53,166.59-29.4,244.81-14.44,32.58,6.24,181.57,26.43,215.75-21.87V-14.69H-24.43Z" transform="translate(38.98 15.22)"/><path class="cls-12" d="M-21.73,162.09a282.18,282.18,0,0,0,43.23-6.86C77.65,141.36,125.33,113,172.23,85.55s95.62-55,152.56-66.92c71.49-14.91,147.73-3.53,222.09-3.95,62.26-.35,125.46-10.17,181.77-29.9H-21.73Z" transform="translate(38.98 15.22)"/><path class="cls-13" d="M-38.53,68.73c14.11-.57,27.63-1.58,39.75-3C52.85,59.61,96.7,47.12,139.82,35S227.75,10.8,280.11,5.56C345.85-1,416,4,484.33,3.82,541.58,3.67,599.69-.65,651.47-9.34h-690Z" transform="translate(38.98 15.22)"/><path class="cls-14" d="M830.43,300.41c-57.11-5.82-119.45-3.51-181.49,23.1-86.14,37-147.13,92.59-253.46,112.11C318,451.78,66.63,463,16.42,508.08h814Z" transform="translate(38.98 15.22)"/><path class="cls-9" d="M830.43,341.5c-35.74-6.41-75.88-6.66-117.89,10.7-66.38,27.43-130.62,83.18-223,98.36-72.22,13.73-213.31.75-331.77,15.89-37.64,5.45-156.26,26-180,44.05l852.64-2.39Z" transform="translate(38.98 15.22)"/><path class="cls-15" d="M830.43,342.83c-35.41-6.3-75.15-7-116.65,10.2-66.26,27.5-119.56,80.54-222.45,99.58C419.18,466,338.85,469,252.47,481.58c-35.58,5.2-85.16,12.41-132.69,26.5H830.43Z" transform="translate(38.98 15.22)"/><path class="cls-11" d="M830.43,335.81c-25.08-1.69-52,1.05-79.76,12.63C694.76,371.79,620.5,439.5,541.49,458.93,483,470.12,440.41,472.35,353.05,469.77c-27.84,4.08-45.25,18-81.88,29l559.26,2.69Z" transform="translate(38.98 15.22)"/><path class="cls-16" d="M841.38,508.08V345q-5.22.6-10.16,1.54c-43.48,8.37-82.83,32.54-123.69,57.2-43.21,26.07-90.82,53.77-150,65.26-80.77,15.69-175.55-.07-278.78-1.92C180.64,465.3,70,477.88-39,508.08Z" transform="translate(38.98 15.22)"/><path class="cls-13" d="M830.43,410c-.84.08-1.69.15-2.52.24-43.69,4.68-83.23,18.5-124.31,32.6-43.44,14.92-91.3,30.76-150.79,37.2-81.25,8.79-176.61-.64-280.52-2.06C173.47,476.59,109.77,483.49,0,500.59l830.43,2.91Z" transform="translate(38.98 15.22)"/></g></g></g></svg>