<svg width="114" height="31" viewBox="0 0 114 31" fill="none" xmlns="http://www.w3.org/2000/svg">
<rect y="4.4928" width="6.61617" height="22.5312" rx="3.30809" fill="white"/>
<rect x="7.93945" y="0.516724" width="6.61617" height="30.4833" rx="3.30809" fill="white"/>
<rect x="15.8789" y="4.4928" width="6.61617" height="22.5312" rx="3.30809" fill="white"/>
<g filter="url(#filter0_d_59_259)">
<path d="M32.667 9.94V14.02H37.467V15.88H32.667V20.14H38.067V22H30.387V8.08H38.067V9.94H32.667ZM49.3352 13.8V15.72H41.1152V13.8H49.3352ZM57.1545 22.14C56.2211 22.14 55.3811 21.98 54.6345 21.66C53.8878 21.3267 53.3011 20.86 52.8745 20.26C52.4478 19.66 52.2345 18.96 52.2345 18.16H54.6745C54.7278 18.76 54.9611 19.2533 55.3745 19.64C55.8011 20.0267 56.3945 20.22 57.1545 20.22C57.9411 20.22 58.5545 20.0333 58.9945 19.66C59.4345 19.2733 59.6545 18.78 59.6545 18.18C59.6545 17.7133 59.5145 17.3333 59.2345 17.04C58.9678 16.7467 58.6278 16.52 58.2145 16.36C57.8145 16.2 57.2545 16.0267 56.5345 15.84C55.6278 15.6 54.8878 15.36 54.3145 15.12C53.7545 14.8667 53.2745 14.48 52.8745 13.96C52.4745 13.44 52.2745 12.7467 52.2745 11.88C52.2745 11.08 52.4745 10.38 52.8745 9.78C53.2745 9.18 53.8345 8.72 54.5545 8.4C55.2745 8.08 56.1078 7.92 57.0545 7.92C58.4011 7.92 59.5011 8.26 60.3545 8.94C61.2211 9.60667 61.7011 10.5267 61.7945 11.7H59.2745C59.2345 11.1933 58.9945 10.76 58.5545 10.4C58.1145 10.04 57.5345 9.86 56.8145 9.86C56.1611 9.86 55.6278 10.0267 55.2145 10.36C54.8011 10.6933 54.5945 11.1733 54.5945 11.8C54.5945 12.2267 54.7211 12.58 54.9745 12.86C55.2411 13.1267 55.5745 13.34 55.9745 13.5C56.3745 13.66 56.9211 13.8333 57.6145 14.02C58.5345 14.2733 59.2811 14.5267 59.8545 14.78C60.4411 15.0333 60.9345 15.4267 61.3345 15.96C61.7478 16.48 61.9545 17.18 61.9545 18.06C61.9545 18.7667 61.7611 19.4333 61.3745 20.06C61.0011 20.6867 60.4478 21.1933 59.7145 21.58C58.9945 21.9533 58.1411 22.14 57.1545 22.14ZM74.6248 10.98V22H72.3448V20.7C71.9848 21.1533 71.5114 21.5133 70.9248 21.78C70.3514 22.0333 69.7381 22.16 69.0848 22.16C68.2181 22.16 67.4381 21.98 66.7448 21.62C66.0648 21.26 65.5248 20.7267 65.1248 20.02C64.7381 19.3133 64.5448 18.46 64.5448 17.46V10.98H66.8048V17.12C66.8048 18.1067 67.0514 18.8667 67.5448 19.4C68.0381 19.92 68.7114 20.18 69.5648 20.18C70.4181 20.18 71.0914 19.92 71.5848 19.4C72.0914 18.8667 72.3448 18.1067 72.3448 17.12V10.98H74.6248ZM76.8731 16.44C76.8731 15.3333 77.0997 14.3533 77.5531 13.5C78.0197 12.6467 78.6464 11.9867 79.4331 11.52C80.2331 11.04 81.1131 10.8 82.0731 10.8C82.9397 10.8 83.6931 10.9733 84.3331 11.32C84.9864 11.6533 85.5064 12.0733 85.8931 12.58V10.98H88.1931V22H85.8931V20.36C85.5064 20.88 84.9797 21.3133 84.3131 21.66C83.6464 22.0067 82.8864 22.18 82.0331 22.18C81.0864 22.18 80.2197 21.94 79.4331 21.46C78.6464 20.9667 78.0197 20.2867 77.5531 19.42C77.0997 18.54 76.8731 17.5467 76.8731 16.44ZM85.8931 16.48C85.8931 15.72 85.7331 15.06 85.4131 14.5C85.1064 13.94 84.6997 13.5133 84.1931 13.22C83.6864 12.9267 83.1397 12.78 82.5531 12.78C81.9664 12.78 81.4197 12.9267 80.9131 13.22C80.4064 13.5 79.9931 13.92 79.6731 14.48C79.3664 15.0267 79.2131 15.68 79.2131 16.44C79.2131 17.2 79.3664 17.8667 79.6731 18.44C79.9931 19.0133 80.4064 19.4533 80.9131 19.76C81.4331 20.0533 81.9797 20.2 82.5531 20.2C83.1397 20.2 83.6864 20.0533 84.1931 19.76C84.6997 19.4667 85.1064 19.04 85.4131 18.48C85.7331 17.9067 85.8931 17.24 85.8931 16.48ZM93.4677 12.58C93.8011 12.02 94.2411 11.5867 94.7877 11.28C95.3477 10.96 96.0077 10.8 96.7677 10.8V13.16H96.1877C95.2944 13.16 94.6144 13.3867 94.1477 13.84C93.6944 14.2933 93.4677 15.08 93.4677 16.2V22H91.1877V10.98H93.4677V12.58ZM98.1035 16.44C98.1035 15.3333 98.3302 14.3533 98.7835 13.5C99.2502 12.6467 99.8769 11.9867 100.664 11.52C101.464 11.04 102.344 10.8 103.304 10.8C104.17 10.8 104.924 10.9733 105.564 11.32C106.217 11.6533 106.737 12.0733 107.124 12.58V10.98H109.424V22H107.124V20.36C106.737 20.88 106.21 21.3133 105.544 21.66C104.877 22.0067 104.117 22.18 103.264 22.18C102.317 22.18 101.45 21.94 100.664 21.46C99.8769 20.9667 99.2502 20.2867 98.7835 19.42C98.3302 18.54 98.1035 17.5467 98.1035 16.44ZM107.124 16.48C107.124 15.72 106.964 15.06 106.644 14.5C106.337 13.94 105.93 13.5133 105.424 13.22C104.917 12.9267 104.37 12.78 103.784 12.78C103.197 12.78 102.65 12.9267 102.144 13.22C101.637 13.5 101.224 13.92 100.904 14.48C100.597 15.0267 100.444 15.68 100.444 16.44C100.444 17.2 100.597 17.8667 100.904 18.44C101.224 19.0133 101.637 19.4533 102.144 19.76C102.664 20.0533 103.21 20.2 103.784 20.2C104.37 20.2 104.917 20.0533 105.424 19.76C105.93 19.4667 106.337 19.04 106.644 18.48C106.964 17.9067 107.124 17.24 107.124 16.48Z" fill="white"/>
</g>
<defs>
<filter id="filter0_d_59_259" x="26.387" y="7.92004" width="87.0366" height="22.26" filterUnits="userSpaceOnUse" color-interpolation-filters="sRGB">
<feFlood flood-opacity="0" result="BackgroundImageFix"/>
<feColorMatrix in="SourceAlpha" type="matrix" values="0 0 0 0 0 0 0 0 0 0 0 0 0 0 0 0 0 0 127 0" result="hardAlpha"/>
<feOffset dy="4"/>
<feGaussianBlur stdDeviation="2"/>
<feComposite in2="hardAlpha" operator="out"/>
<feColorMatrix type="matrix" values="0 0 0 0 0 0 0 0 0 0 0 0 0 0 0 0 0 0 0.25 0"/>
<feBlend mode="normal" in2="BackgroundImageFix" result="effect1_dropShadow_59_259"/>
<feBlend mode="normal" in="SourceGraphic" in2="effect1_dropShadow_59_259" result="shape"/>
</filter>
</defs>
</svg>
