<svg width="433" height="57" viewBox="0 0 433 57" fill="none" xmlns="http://www.w3.org/2000/svg">
<rect y="12.5217" width="9.64898" height="32.7065" rx="4.82449" fill="white"/>
<rect x="11.5789" y="6.75" width="9.64898" height="44.25" rx="4.82449" fill="white"/>
<rect x="23.1575" y="12.5217" width="9.64898" height="32.7065" rx="4.82449" fill="white"/>
<path d="M46.048 20.704V27.232H53.728V30.208H46.048V37.024H54.688V40H42.4V17.728H54.688V20.704H46.048ZM72.7173 26.88V29.952H59.5653V26.88H72.7173ZM85.228 40.224C83.7347 40.224 82.3907 39.968 81.196 39.456C80.0013 38.9227 79.0627 38.176 78.38 37.216C77.6973 36.256 77.356 35.136 77.356 33.856H81.26C81.3453 34.816 81.7187 35.6053 82.38 36.224C83.0627 36.8427 84.012 37.152 85.228 37.152C86.4867 37.152 87.468 36.8533 88.172 36.256C88.876 35.6373 89.228 34.848 89.228 33.888C89.228 33.1413 89.004 32.5333 88.556 32.064C88.1293 31.5947 87.5853 31.232 86.924 30.976C86.284 30.72 85.388 30.4427 84.236 30.144C82.7853 29.76 81.6013 29.376 80.684 28.992C79.788 28.5867 79.02 27.968 78.38 27.136C77.74 26.304 77.42 25.1947 77.42 23.808C77.42 22.528 77.74 21.408 78.38 20.448C79.02 19.488 79.916 18.752 81.068 18.24C82.22 17.728 83.5533 17.472 85.068 17.472C87.2227 17.472 88.9827 18.016 90.348 19.104C91.7347 20.1707 92.5027 21.6427 92.652 23.52H88.62C88.556 22.7093 88.172 22.016 87.468 21.44C86.764 20.864 85.836 20.576 84.684 20.576C83.6387 20.576 82.7853 20.8427 82.124 21.376C81.4627 21.9093 81.132 22.6773 81.132 23.68C81.132 24.3627 81.3347 24.928 81.74 25.376C82.1667 25.8027 82.7 26.144 83.34 26.4C83.98 26.656 84.8547 26.9333 85.964 27.232C87.436 27.6373 88.6307 28.0427 89.548 28.448C90.4867 28.8533 91.276 29.4827 91.916 30.336C92.5773 31.168 92.908 32.288 92.908 33.696C92.908 34.8267 92.5987 35.8933 91.98 36.896C91.3827 37.8987 90.4973 38.7093 89.324 39.328C88.172 39.9253 86.8067 40.224 85.228 40.224ZM113.181 22.368V40H109.533V37.92C108.957 38.6453 108.199 39.2213 107.261 39.648C106.343 40.0533 105.362 40.256 104.317 40.256C102.93 40.256 101.682 39.968 100.573 39.392C99.4845 38.816 98.6205 37.9627 97.9805 36.832C97.3618 35.7013 97.0525 34.336 97.0525 32.736V22.368H100.669V32.192C100.669 33.7707 101.063 34.9867 101.853 35.84C102.642 36.672 103.719 37.088 105.085 37.088C106.45 37.088 107.527 36.672 108.317 35.84C109.127 34.9867 109.533 33.7707 109.533 32.192V22.368H113.181ZM116.778 31.104C116.778 29.3333 117.14 27.7653 117.866 26.4C118.612 25.0347 119.615 23.9787 120.874 23.232C122.154 22.464 123.562 22.08 125.098 22.08C126.484 22.08 127.69 22.3573 128.714 22.912C129.759 23.4453 130.591 24.1173 131.21 24.928V22.368H134.89V40H131.21V37.376C130.591 38.208 129.748 38.9013 128.682 39.456C127.615 40.0107 126.399 40.288 125.034 40.288C123.519 40.288 122.132 39.904 120.874 39.136C119.615 38.3467 118.612 37.2587 117.866 35.872C117.14 34.464 116.778 32.8747 116.778 31.104ZM131.21 31.168C131.21 29.952 130.954 28.896 130.442 28C129.951 27.104 129.3 26.4213 128.49 25.952C127.679 25.4827 126.804 25.248 125.866 25.248C124.927 25.248 124.052 25.4827 123.242 25.952C122.431 26.4 121.77 27.072 121.258 27.968C120.767 28.8427 120.522 29.888 120.522 31.104C120.522 32.32 120.767 33.3867 121.258 34.304C121.77 35.2213 122.431 35.9253 123.242 36.416C124.074 36.8853 124.948 37.12 125.866 37.12C126.804 37.12 127.679 36.8853 128.49 36.416C129.3 35.9467 129.951 35.264 130.442 34.368C130.954 33.4507 131.21 32.384 131.21 31.168ZM143.329 24.928C143.863 24.032 144.567 23.3387 145.441 22.848C146.337 22.336 147.393 22.08 148.609 22.08V25.856H147.681C146.252 25.856 145.164 26.2187 144.417 26.944C143.692 27.6693 143.329 28.928 143.329 30.72V40H139.681V22.368H143.329V24.928ZM150.747 31.104C150.747 29.3333 151.109 27.7653 151.835 26.4C152.581 25.0347 153.584 23.9787 154.843 23.232C156.123 22.464 157.531 22.08 159.067 22.08C160.453 22.08 161.659 22.3573 162.683 22.912C163.728 23.4453 164.56 24.1173 165.179 24.928V22.368H168.859V40H165.179V37.376C164.56 38.208 163.717 38.9013 162.651 39.456C161.584 40.0107 160.368 40.288 159.003 40.288C157.488 40.288 156.101 39.904 154.843 39.136C153.584 38.3467 152.581 37.2587 151.835 35.872C151.109 34.464 150.747 32.8747 150.747 31.104ZM165.179 31.168C165.179 29.952 164.923 28.896 164.411 28C163.92 27.104 163.269 26.4213 162.459 25.952C161.648 25.4827 160.773 25.248 159.835 25.248C158.896 25.248 158.021 25.4827 157.211 25.952C156.4 26.4 155.739 27.072 155.227 27.968C154.736 28.8427 154.491 29.888 154.491 31.104C154.491 32.32 154.736 33.3867 155.227 34.304C155.739 35.2213 156.4 35.9253 157.211 36.416C158.043 36.8853 158.917 37.12 159.835 37.12C160.773 37.12 161.648 36.8853 162.459 36.416C163.269 35.9467 163.92 35.264 164.411 34.368C164.923 33.4507 165.179 32.384 165.179 31.168Z" fill="white"/>
<path d="M216.6 7.04V21H213.8V11.92L210.06 21H207.94L204.18 11.92V21H201.38V7.04H204.56L209 17.42L213.44 7.04H216.6ZM229.028 9.92V21H226.208V19.6C225.848 20.08 225.375 20.46 224.788 20.74C224.215 21.0067 223.588 21.14 222.908 21.14C222.042 21.14 221.275 20.96 220.608 20.6C219.942 20.2267 219.415 19.6867 219.028 18.98C218.655 18.26 218.468 17.4067 218.468 16.42V9.92H221.268V16.02C221.268 16.9 221.488 17.58 221.928 18.06C222.368 18.5267 222.968 18.76 223.728 18.76C224.502 18.76 225.108 18.5267 225.548 18.06C225.988 17.58 226.208 16.9 226.208 16.02V9.92H229.028ZM230.271 15.42C230.271 14.3 230.491 13.3067 230.931 12.44C231.384 11.5733 231.998 10.9067 232.771 10.44C233.544 9.97333 234.404 9.74 235.351 9.74C236.071 9.74 236.758 9.9 237.411 10.22C238.064 10.5267 238.584 10.94 238.971 11.46V6.2H241.811V21H238.971V19.36C238.624 19.9067 238.138 20.3467 237.511 20.68C236.884 21.0133 236.158 21.18 235.331 21.18C234.398 21.18 233.544 20.94 232.771 20.46C231.998 19.98 231.384 19.3067 230.931 18.44C230.491 17.56 230.271 16.5533 230.271 15.42ZM238.991 15.46C238.991 14.78 238.858 14.2 238.591 13.72C238.324 13.2267 237.964 12.8533 237.511 12.6C237.058 12.3333 236.571 12.2 236.051 12.2C235.531 12.2 235.051 12.3267 234.611 12.58C234.171 12.8333 233.811 13.2067 233.531 13.7C233.264 14.18 233.131 14.7533 233.131 15.42C233.131 16.0867 233.264 16.6733 233.531 17.18C233.811 17.6733 234.171 18.0533 234.611 18.32C235.064 18.5867 235.544 18.72 236.051 18.72C236.571 18.72 237.058 18.5933 237.511 18.34C237.964 18.0733 238.324 17.7 238.591 17.22C238.858 16.7267 238.991 16.14 238.991 15.46ZM243.026 15.42C243.026 14.3 243.246 13.3067 243.686 12.44C244.139 11.5733 244.746 10.9067 245.506 10.44C246.279 9.97333 247.139 9.74 248.086 9.74C248.912 9.74 249.632 9.90667 250.246 10.24C250.872 10.5733 251.372 10.9933 251.746 11.5V9.92H254.566V21H251.746V19.38C251.386 19.9 250.886 20.3333 250.246 20.68C249.619 21.0133 248.892 21.18 248.066 21.18C247.132 21.18 246.279 20.94 245.506 20.46C244.746 19.98 244.139 19.3067 243.686 18.44C243.246 17.56 243.026 16.5533 243.026 15.42ZM251.746 15.46C251.746 14.78 251.612 14.2 251.346 13.72C251.079 13.2267 250.719 12.8533 250.266 12.6C249.812 12.3333 249.326 12.2 248.806 12.2C248.286 12.2 247.806 12.3267 247.366 12.58C246.926 12.8333 246.566 13.2067 246.286 13.7C246.019 14.18 245.886 14.7533 245.886 15.42C245.886 16.0867 246.019 16.6733 246.286 17.18C246.566 17.6733 246.926 18.0533 247.366 18.32C247.819 18.5867 248.299 18.72 248.806 18.72C249.326 18.72 249.812 18.5933 250.266 18.34C250.719 18.0733 251.079 17.7 251.346 17.22C251.612 16.7267 251.746 16.14 251.746 15.46ZM262.74 9.76C263.58 9.76 264.327 9.94667 264.98 10.32C265.634 10.68 266.14 11.22 266.5 11.94C266.874 12.6467 267.06 13.5 267.06 14.5V21H264.26V14.88C264.26 14 264.04 13.3267 263.6 12.86C263.16 12.38 262.56 12.14 261.8 12.14C261.027 12.14 260.414 12.38 259.96 12.86C259.52 13.3267 259.3 14 259.3 14.88V21H256.5V6.2H259.3V11.3C259.66 10.82 260.14 10.4467 260.74 10.18C261.34 9.9 262.007 9.76 262.74 9.76ZM275.483 21L271.723 16.28V21H268.923V6.2H271.723V14.62L275.443 9.92H279.083L274.203 15.48L279.123 21H275.483ZM279.083 15.42C279.083 14.3 279.303 13.3067 279.743 12.44C280.196 11.5733 280.803 10.9067 281.563 10.44C282.336 9.97333 283.196 9.74 284.143 9.74C284.969 9.74 285.689 9.90667 286.303 10.24C286.929 10.5733 287.429 10.9933 287.803 11.5V9.92H290.623V21H287.803V19.38C287.443 19.9 286.943 20.3333 286.303 20.68C285.676 21.0133 284.949 21.18 284.123 21.18C283.189 21.18 282.336 20.94 281.563 20.46C280.803 19.98 280.196 19.3067 279.743 18.44C279.303 17.56 279.083 16.5533 279.083 15.42ZM287.803 15.46C287.803 14.78 287.669 14.2 287.403 13.72C287.136 13.2267 286.776 12.8533 286.323 12.6C285.869 12.3333 285.383 12.2 284.863 12.2C284.343 12.2 283.863 12.3267 283.423 12.58C282.983 12.8333 282.623 13.2067 282.343 13.7C282.076 14.18 281.943 14.7533 281.943 15.42C281.943 16.0867 282.076 16.6733 282.343 17.18C282.623 17.6733 282.983 18.0533 283.423 18.32C283.876 18.5867 284.356 18.72 284.863 18.72C285.383 18.72 285.869 18.5933 286.323 18.34C286.776 18.0733 287.136 17.7 287.403 17.22C287.669 16.7267 287.803 16.14 287.803 15.46ZM298.697 9.76C300.017 9.76 301.084 10.18 301.897 11.02C302.711 11.8467 303.117 13.0067 303.117 14.5V21H300.317V14.88C300.317 14 300.097 13.3267 299.657 12.86C299.217 12.38 298.617 12.14 297.857 12.14C297.084 12.14 296.471 12.38 296.017 12.86C295.577 13.3267 295.357 14 295.357 14.88V21H292.557V9.92H295.357V11.3C295.731 10.82 296.204 10.4467 296.777 10.18C297.364 9.9 298.004 9.76 298.697 9.76ZM319.126 11.36C319.126 12.1067 318.946 12.8067 318.586 13.46C318.239 14.1133 317.686 14.64 316.926 15.04C316.179 15.44 315.232 15.64 314.086 15.64H311.746V21H308.946V7.04H314.086C315.166 7.04 316.086 7.22667 316.846 7.6C317.606 7.97333 318.172 8.48667 318.546 9.14C318.932 9.79333 319.126 10.5333 319.126 11.36ZM313.966 13.38C314.739 13.38 315.312 13.2067 315.686 12.86C316.059 12.5 316.246 12 316.246 11.36C316.246 10 315.486 9.32 313.966 9.32H311.746V13.38H313.966ZM319.594 15.42C319.594 14.3 319.814 13.3067 320.254 12.44C320.707 11.5733 321.314 10.9067 322.074 10.44C322.847 9.97333 323.707 9.74 324.654 9.74C325.48 9.74 326.2 9.90667 326.814 10.24C327.44 10.5733 327.94 10.9933 328.314 11.5V9.92H331.134V21H328.314V19.38C327.954 19.9 327.454 20.3333 326.814 20.68C326.187 21.0133 325.46 21.18 324.634 21.18C323.7 21.18 322.847 20.94 322.074 20.46C321.314 19.98 320.707 19.3067 320.254 18.44C319.814 17.56 319.594 16.5533 319.594 15.42ZM328.314 15.46C328.314 14.78 328.18 14.2 327.914 13.72C327.647 13.2267 327.287 12.8533 326.834 12.6C326.38 12.3333 325.894 12.2 325.374 12.2C324.854 12.2 324.374 12.3267 323.934 12.58C323.494 12.8333 323.134 13.2067 322.854 13.7C322.587 14.18 322.454 14.7533 322.454 15.42C322.454 16.0867 322.587 16.6733 322.854 17.18C323.134 17.6733 323.494 18.0533 323.934 18.32C324.387 18.5867 324.867 18.72 325.374 18.72C325.894 18.72 326.38 18.5933 326.834 18.34C327.287 18.0733 327.647 17.7 327.914 17.22C328.18 16.7267 328.314 16.14 328.314 15.46ZM335.868 11.64C336.228 11.0533 336.695 10.5933 337.268 10.26C337.855 9.92667 338.522 9.76 339.268 9.76V12.7H338.528C337.648 12.7 336.982 12.9067 336.528 13.32C336.088 13.7333 335.868 14.4533 335.868 15.48V21H333.068V9.92H335.868V11.64ZM343.614 12.22V17.58C343.614 17.9533 343.701 18.2267 343.874 18.4C344.061 18.56 344.368 18.64 344.794 18.64H346.094V21H344.334C341.974 21 340.794 19.8533 340.794 17.56V12.22H339.474V9.92H340.794V7.18H343.614V9.92H346.094V12.22H343.614ZM348.728 8.6C348.235 8.6 347.821 8.44667 347.488 8.14C347.168 7.82 347.008 7.42667 347.008 6.96C347.008 6.49333 347.168 6.10667 347.488 5.8C347.821 5.48 348.235 5.32 348.728 5.32C349.221 5.32 349.628 5.48 349.948 5.8C350.281 6.10667 350.448 6.49333 350.448 6.96C350.448 7.42667 350.281 7.82 349.948 8.14C349.628 8.44667 349.221 8.6 348.728 8.6ZM350.108 9.92V21H347.308V9.92H350.108ZM356.315 21.18C355.408 21.18 354.595 21.02 353.875 20.7C353.155 20.3667 352.581 19.92 352.155 19.36C351.741 18.8 351.515 18.18 351.475 17.5H354.295C354.348 17.9267 354.555 18.28 354.915 18.56C355.288 18.84 355.748 18.98 356.295 18.98C356.828 18.98 357.241 18.8733 357.535 18.66C357.841 18.4467 357.995 18.1733 357.995 17.84C357.995 17.48 357.808 17.2133 357.435 17.04C357.075 16.8533 356.495 16.6533 355.695 16.44C354.868 16.24 354.188 16.0333 353.655 15.82C353.135 15.6067 352.681 15.28 352.295 14.84C351.921 14.4 351.735 13.8067 351.735 13.06C351.735 12.4467 351.908 11.8867 352.255 11.38C352.615 10.8733 353.121 10.4733 353.775 10.18C354.441 9.88667 355.221 9.74 356.115 9.74C357.435 9.74 358.488 10.0733 359.275 10.74C360.061 11.3933 360.495 12.28 360.575 13.4H357.895C357.855 12.96 357.668 12.6133 357.335 12.36C357.015 12.0933 356.581 11.96 356.035 11.96C355.528 11.96 355.135 12.0533 354.855 12.24C354.588 12.4267 354.455 12.6867 354.455 13.02C354.455 13.3933 354.641 13.68 355.015 13.88C355.388 14.0667 355.968 14.26 356.755 14.46C357.555 14.66 358.215 14.8667 358.735 15.08C359.255 15.2933 359.701 15.6267 360.075 16.08C360.461 16.52 360.661 17.1067 360.675 17.84C360.675 18.48 360.495 19.0533 360.135 19.56C359.788 20.0667 359.281 20.4667 358.615 20.76C357.961 21.04 357.195 21.18 356.315 21.18ZM363.593 8.6C363.1 8.6 362.686 8.44667 362.353 8.14C362.033 7.82 361.873 7.42667 361.873 6.96C361.873 6.49333 362.033 6.10667 362.353 5.8C362.686 5.48 363.1 5.32 363.593 5.32C364.086 5.32 364.493 5.48 364.813 5.8C365.146 6.10667 365.313 6.49333 365.313 6.96C365.313 7.42667 365.146 7.82 364.813 8.14C364.493 8.44667 364.086 8.6 363.593 8.6ZM364.973 9.92V21H362.173V9.92H364.973ZM369.739 11.52C370.099 11.0133 370.593 10.5933 371.219 10.26C371.859 9.91333 372.586 9.74 373.399 9.74C374.346 9.74 375.199 9.97333 375.959 10.44C376.733 10.9067 377.339 11.5733 377.779 12.44C378.233 13.2933 378.459 14.2867 378.459 15.42C378.459 16.5533 378.233 17.56 377.779 18.44C377.339 19.3067 376.733 19.98 375.959 20.46C375.199 20.94 374.346 21.18 373.399 21.18C372.586 21.18 371.866 21.0133 371.239 20.68C370.626 20.3467 370.126 19.9267 369.739 19.42V26.28H366.939V9.92H369.739V11.52ZM375.599 15.42C375.599 14.7533 375.459 14.18 375.179 13.7C374.913 13.2067 374.553 12.8333 374.099 12.58C373.659 12.3267 373.179 12.2 372.659 12.2C372.153 12.2 371.673 12.3333 371.219 12.6C370.779 12.8533 370.419 13.2267 370.139 13.72C369.873 14.2133 369.739 14.7933 369.739 15.46C369.739 16.1267 369.873 16.7067 370.139 17.2C370.419 17.6933 370.779 18.0733 371.219 18.34C371.673 18.5933 372.153 18.72 372.659 18.72C373.179 18.72 373.659 18.5867 374.099 18.32C374.553 18.0533 374.913 17.6733 375.179 17.18C375.459 16.6867 375.599 16.1 375.599 15.42ZM378.974 15.42C378.974 14.3 379.194 13.3067 379.634 12.44C380.087 11.5733 380.694 10.9067 381.454 10.44C382.227 9.97333 383.087 9.74 384.034 9.74C384.861 9.74 385.581 9.90667 386.194 10.24C386.821 10.5733 387.321 10.9933 387.694 11.5V9.92H390.514V21H387.694V19.38C387.334 19.9 386.834 20.3333 386.194 20.68C385.567 21.0133 384.841 21.18 384.014 21.18C383.081 21.18 382.227 20.94 381.454 20.46C380.694 19.98 380.087 19.3067 379.634 18.44C379.194 17.56 378.974 16.5533 378.974 15.42ZM387.694 15.46C387.694 14.78 387.561 14.2 387.294 13.72C387.027 13.2267 386.667 12.8533 386.214 12.6C385.761 12.3333 385.274 12.2 384.754 12.2C384.234 12.2 383.754 12.3267 383.314 12.58C382.874 12.8333 382.514 13.2067 382.234 13.7C381.967 14.18 381.834 14.7533 381.834 15.42C381.834 16.0867 381.967 16.6733 382.234 17.18C382.514 17.6733 382.874 18.0533 383.314 18.32C383.767 18.5867 384.247 18.72 384.754 18.72C385.274 18.72 385.761 18.5933 386.214 18.34C386.667 18.0733 387.027 17.7 387.294 17.22C387.561 16.7267 387.694 16.14 387.694 15.46ZM396.689 21.18C395.782 21.18 394.969 21.02 394.249 20.7C393.529 20.3667 392.955 19.92 392.529 19.36C392.115 18.8 391.889 18.18 391.849 17.5H394.669C394.722 17.9267 394.929 18.28 395.289 18.56C395.662 18.84 396.122 18.98 396.669 18.98C397.202 18.98 397.615 18.8733 397.909 18.66C398.215 18.4467 398.369 18.1733 398.369 17.84C398.369 17.48 398.182 17.2133 397.809 17.04C397.449 16.8533 396.869 16.6533 396.069 16.44C395.242 16.24 394.562 16.0333 394.029 15.82C393.509 15.6067 393.055 15.28 392.669 14.84C392.295 14.4 392.109 13.8067 392.109 13.06C392.109 12.4467 392.282 11.8867 392.629 11.38C392.989 10.8733 393.495 10.4733 394.149 10.18C394.815 9.88667 395.595 9.74 396.489 9.74C397.809 9.74 398.862 10.0733 399.649 10.74C400.435 11.3933 400.869 12.28 400.949 13.4H398.269C398.229 12.96 398.042 12.6133 397.709 12.36C397.389 12.0933 396.955 11.96 396.409 11.96C395.902 11.96 395.509 12.0533 395.229 12.24C394.962 12.4267 394.829 12.6867 394.829 13.02C394.829 13.3933 395.015 13.68 395.389 13.88C395.762 14.0667 396.342 14.26 397.129 14.46C397.929 14.66 398.589 14.8667 399.109 15.08C399.629 15.2933 400.075 15.6267 400.449 16.08C400.835 16.52 401.035 17.1067 401.049 17.84C401.049 18.48 400.869 19.0533 400.509 19.56C400.162 20.0667 399.655 20.4667 398.989 20.76C398.335 21.04 397.569 21.18 396.689 21.18ZM403.967 8.6C403.474 8.6 403.061 8.44667 402.727 8.14C402.407 7.82 402.247 7.42667 402.247 6.96C402.247 6.49333 402.407 6.10667 402.727 5.8C403.061 5.48 403.474 5.32 403.967 5.32C404.461 5.32 404.867 5.48 405.187 5.8C405.521 6.10667 405.687 6.49333 405.687 6.96C405.687 7.42667 405.521 7.82 405.187 8.14C404.867 8.44667 404.461 8.6 403.967 8.6ZM405.347 9.92V21H402.547V9.92H405.347ZM211.56 41.36C211.56 42.1067 211.38 42.8067 211.02 43.46C210.673 44.1133 210.12 44.64 209.36 45.04C208.613 45.44 207.667 45.64 206.52 45.64H204.18V51H201.38V37.04H206.52C207.6 37.04 208.52 37.2267 209.28 37.6C210.04 37.9733 210.607 38.4867 210.98 39.14C211.367 39.7933 211.56 40.5333 211.56 41.36ZM206.4 43.38C207.173 43.38 207.747 43.2067 208.12 42.86C208.493 42.5 208.68 42 208.68 41.36C208.68 40 207.92 39.32 206.4 39.32H204.18V43.38H206.4ZM223.048 45.22C223.048 45.62 223.021 45.98 222.968 46.3H214.868C214.935 47.1 215.215 47.7267 215.708 48.18C216.201 48.6333 216.808 48.86 217.528 48.86C218.568 48.86 219.308 48.4133 219.748 47.52H222.768C222.448 48.5867 221.835 49.4667 220.928 50.16C220.021 50.84 218.908 51.18 217.588 51.18C216.521 51.18 215.561 50.9467 214.708 50.48C213.868 50 213.208 49.3267 212.728 48.46C212.261 47.5933 212.028 46.5933 212.028 45.46C212.028 44.3133 212.261 43.3067 212.728 42.44C213.195 41.5733 213.848 40.9067 214.688 40.44C215.528 39.9733 216.495 39.74 217.588 39.74C218.641 39.74 219.581 39.9667 220.408 40.42C221.248 40.8733 221.895 41.52 222.348 42.36C222.815 43.1867 223.048 44.14 223.048 45.22ZM220.148 44.42C220.135 43.7 219.875 43.1267 219.368 42.7C218.861 42.26 218.241 42.04 217.508 42.04C216.815 42.04 216.228 42.2533 215.748 42.68C215.281 43.0933 214.995 43.6733 214.888 44.42H220.148ZM227.092 41.64C227.452 41.0533 227.918 40.5933 228.492 40.26C229.078 39.9267 229.745 39.76 230.492 39.76V42.7H229.752C228.872 42.7 228.205 42.9067 227.752 43.32C227.312 43.7333 227.092 44.4533 227.092 45.48V51H224.292V39.92H227.092V41.64ZM238.138 51L234.378 46.28V51H231.578V36.2H234.378V44.62L238.098 39.92H241.738L236.858 45.48L241.778 51H238.138ZM252.917 39.92V51H250.097V49.6C249.737 50.08 249.264 50.46 248.677 50.74C248.104 51.0067 247.477 51.14 246.797 51.14C245.931 51.14 245.164 50.96 244.497 50.6C243.831 50.2267 243.304 49.6867 242.917 48.98C242.544 48.26 242.357 47.4067 242.357 46.42V39.92H245.157V46.02C245.157 46.9 245.377 47.58 245.817 48.06C246.257 48.5267 246.857 48.76 247.617 48.76C248.391 48.76 248.997 48.5267 249.437 48.06C249.877 47.58 250.097 46.9 250.097 46.02V39.92H252.917ZM254.16 45.42C254.16 44.3 254.38 43.3067 254.82 42.44C255.273 41.5733 255.88 40.9067 256.64 40.44C257.413 39.9733 258.273 39.74 259.22 39.74C260.047 39.74 260.767 39.9067 261.38 40.24C262.007 40.5733 262.507 40.9933 262.88 41.5V39.92H265.7V51H262.88V49.38C262.52 49.9 262.02 50.3333 261.38 50.68C260.753 51.0133 260.027 51.18 259.2 51.18C258.267 51.18 257.413 50.94 256.64 50.46C255.88 49.98 255.273 49.3067 254.82 48.44C254.38 47.56 254.16 46.5533 254.16 45.42ZM262.88 45.46C262.88 44.78 262.747 44.2 262.48 43.72C262.213 43.2267 261.853 42.8533 261.4 42.6C260.947 42.3333 260.46 42.2 259.94 42.2C259.42 42.2 258.94 42.3267 258.5 42.58C258.06 42.8333 257.7 43.2067 257.42 43.7C257.153 44.18 257.02 44.7533 257.02 45.42C257.02 46.0867 257.153 46.6733 257.42 47.18C257.7 47.6733 258.06 48.0533 258.5 48.32C258.953 48.5867 259.433 48.72 259.94 48.72C260.46 48.72 260.947 48.5933 261.4 48.34C261.853 48.0733 262.213 47.7 262.48 47.22C262.747 46.7267 262.88 46.14 262.88 45.46ZM270.895 42.22V47.58C270.895 47.9533 270.981 48.2267 271.155 48.4C271.341 48.56 271.648 48.64 272.075 48.64H273.375V51H271.615C269.255 51 268.075 49.8533 268.075 47.56V42.22H266.755V39.92H268.075V37.18H270.895V39.92H273.375V42.22H270.895ZM283.434 37.04C284.901 37.04 286.188 37.3267 287.294 37.9C288.414 38.4733 289.274 39.2933 289.874 40.36C290.488 41.4133 290.794 42.64 290.794 44.04C290.794 45.44 290.488 46.6667 289.874 47.72C289.274 48.76 288.414 49.5667 287.294 50.14C286.188 50.7133 284.901 51 283.434 51H278.554V37.04H283.434ZM283.334 48.62C284.801 48.62 285.934 48.22 286.734 47.42C287.534 46.62 287.934 45.4933 287.934 44.04C287.934 42.5867 287.534 41.4533 286.734 40.64C285.934 39.8133 284.801 39.4 283.334 39.4H281.354V48.62H283.334ZM302.39 45.22C302.39 45.62 302.363 45.98 302.31 46.3H294.21C294.277 47.1 294.557 47.7267 295.05 48.18C295.543 48.6333 296.15 48.86 296.87 48.86C297.91 48.86 298.65 48.4133 299.09 47.52H302.11C301.79 48.5867 301.177 49.4667 300.27 50.16C299.363 50.84 298.25 51.18 296.93 51.18C295.863 51.18 294.903 50.9467 294.05 50.48C293.21 50 292.55 49.3267 292.07 48.46C291.603 47.5933 291.37 46.5933 291.37 45.46C291.37 44.3133 291.603 43.3067 292.07 42.44C292.537 41.5733 293.19 40.9067 294.03 40.44C294.87 39.9733 295.837 39.74 296.93 39.74C297.983 39.74 298.923 39.9667 299.75 40.42C300.59 40.8733 301.237 41.52 301.69 42.36C302.157 43.1867 302.39 44.14 302.39 45.22ZM299.49 44.42C299.477 43.7 299.217 43.1267 298.71 42.7C298.203 42.26 297.583 42.04 296.85 42.04C296.157 42.04 295.57 42.2533 295.09 42.68C294.623 43.0933 294.337 43.6733 294.23 44.42H299.49ZM317.394 39.76C318.754 39.76 319.847 40.18 320.674 41.02C321.514 41.8467 321.934 43.0067 321.934 44.5V51H319.134V44.88C319.134 44.0133 318.914 43.3533 318.474 42.9C318.034 42.4333 317.434 42.2 316.674 42.2C315.914 42.2 315.307 42.4333 314.854 42.9C314.414 43.3533 314.194 44.0133 314.194 44.88V51H311.394V44.88C311.394 44.0133 311.174 43.3533 310.734 42.9C310.294 42.4333 309.694 42.2 308.934 42.2C308.161 42.2 307.547 42.4333 307.094 42.9C306.654 43.3533 306.434 44.0133 306.434 44.88V51H303.634V39.92H306.434V41.26C306.794 40.7933 307.254 40.4267 307.814 40.16C308.387 39.8933 309.014 39.76 309.694 39.76C310.561 39.76 311.334 39.9467 312.014 40.32C312.694 40.68 313.221 41.2 313.594 41.88C313.954 41.24 314.474 40.7267 315.154 40.34C315.847 39.9533 316.594 39.76 317.394 39.76ZM328.711 51.18C327.644 51.18 326.684 50.9467 325.831 50.48C324.978 50 324.304 49.3267 323.811 48.46C323.331 47.5933 323.091 46.5933 323.091 45.46C323.091 44.3267 323.338 43.3267 323.831 42.46C324.338 41.5933 325.024 40.9267 325.891 40.46C326.758 39.98 327.724 39.74 328.791 39.74C329.858 39.74 330.824 39.98 331.691 40.46C332.558 40.9267 333.238 41.5933 333.731 42.46C334.238 43.3267 334.491 44.3267 334.491 45.46C334.491 46.5933 334.231 47.5933 333.711 48.46C333.204 49.3267 332.511 50 331.631 50.48C330.764 50.9467 329.791 51.18 328.711 51.18ZM328.711 48.74C329.218 48.74 329.691 48.62 330.131 48.38C330.584 48.1267 330.944 47.7533 331.211 47.26C331.478 46.7667 331.611 46.1667 331.611 45.46C331.611 44.4067 331.331 43.6 330.771 43.04C330.224 42.4667 329.551 42.18 328.751 42.18C327.951 42.18 327.278 42.4667 326.731 43.04C326.198 43.6 325.931 44.4067 325.931 45.46C325.931 46.5133 326.191 47.3267 326.711 47.9C327.244 48.46 327.911 48.74 328.711 48.74ZM342.305 51L338.545 46.28V51H335.745V36.2H338.545V44.62L342.265 39.92H345.905L341.025 45.48L345.945 51H342.305ZM349.425 41.64C349.785 41.0533 350.251 40.5933 350.825 40.26C351.411 39.9267 352.078 39.76 352.825 39.76V42.7H352.085C351.205 42.7 350.538 42.9067 350.085 43.32C349.645 43.7333 349.425 44.4533 349.425 45.48V51H346.625V39.92H349.425V41.64ZM353.19 45.42C353.19 44.3 353.41 43.3067 353.85 42.44C354.304 41.5733 354.91 40.9067 355.67 40.44C356.444 39.9733 357.304 39.74 358.25 39.74C359.077 39.74 359.797 39.9067 360.41 40.24C361.037 40.5733 361.537 40.9933 361.91 41.5V39.92H364.73V51H361.91V49.38C361.55 49.9 361.05 50.3333 360.41 50.68C359.784 51.0133 359.057 51.18 358.23 51.18C357.297 51.18 356.444 50.94 355.67 50.46C354.91 49.98 354.304 49.3067 353.85 48.44C353.41 47.56 353.19 46.5533 353.19 45.42ZM361.91 45.46C361.91 44.78 361.777 44.2 361.51 43.72C361.244 43.2267 360.884 42.8533 360.43 42.6C359.977 42.3333 359.49 42.2 358.97 42.2C358.45 42.2 357.97 42.3267 357.53 42.58C357.09 42.8333 356.73 43.2067 356.45 43.7C356.184 44.18 356.05 44.7533 356.05 45.42C356.05 46.0867 356.184 46.6733 356.45 47.18C356.73 47.6733 357.09 48.0533 357.53 48.32C357.984 48.5867 358.464 48.72 358.97 48.72C359.49 48.72 359.977 48.5933 360.43 48.34C360.884 48.0733 361.244 47.7 361.51 47.22C361.777 46.7267 361.91 46.14 361.91 45.46ZM370.905 51.18C369.998 51.18 369.185 51.02 368.465 50.7C367.745 50.3667 367.172 49.92 366.745 49.36C366.332 48.8 366.105 48.18 366.065 47.5H368.885C368.938 47.9267 369.145 48.28 369.505 48.56C369.878 48.84 370.338 48.98 370.885 48.98C371.418 48.98 371.832 48.8733 372.125 48.66C372.432 48.4467 372.585 48.1733 372.585 47.84C372.585 47.48 372.398 47.2133 372.025 47.04C371.665 46.8533 371.085 46.6533 370.285 46.44C369.458 46.24 368.778 46.0333 368.245 45.82C367.725 45.6067 367.272 45.28 366.885 44.84C366.512 44.4 366.325 43.8067 366.325 43.06C366.325 42.4467 366.498 41.8867 366.845 41.38C367.205 40.8733 367.712 40.4733 368.365 40.18C369.032 39.8867 369.812 39.74 370.705 39.74C372.025 39.74 373.078 40.0733 373.865 40.74C374.652 41.3933 375.085 42.28 375.165 43.4H372.485C372.445 42.96 372.258 42.6133 371.925 42.36C371.605 42.0933 371.172 41.96 370.625 41.96C370.118 41.96 369.725 42.0533 369.445 42.24C369.178 42.4267 369.045 42.6867 369.045 43.02C369.045 43.3933 369.232 43.68 369.605 43.88C369.978 44.0667 370.558 44.26 371.345 44.46C372.145 44.66 372.805 44.8667 373.325 45.08C373.845 45.2933 374.292 45.6267 374.665 46.08C375.052 46.52 375.252 47.1067 375.265 47.84C375.265 48.48 375.085 49.0533 374.725 49.56C374.378 50.0667 373.872 50.4667 373.205 50.76C372.552 51.04 371.785 51.18 370.905 51.18ZM378.184 38.6C377.69 38.6 377.277 38.4467 376.944 38.14C376.624 37.82 376.464 37.4267 376.464 36.96C376.464 36.4933 376.624 36.1067 376.944 35.8C377.277 35.48 377.69 35.32 378.184 35.32C378.677 35.32 379.084 35.48 379.404 35.8C379.737 36.1067 379.904 36.4933 379.904 36.96C379.904 37.4267 379.737 37.82 379.404 38.14C379.084 38.4467 378.677 38.6 378.184 38.6ZM379.564 39.92V51H376.764V39.92H379.564Z" fill="white"/>
<line x1="189" y1="4.37114e-08" x2="189" y2="57" stroke="white" stroke-width="2"/>
</svg>
