<svg width="20" height="20" viewBox="0 0 20 20" fill="none" xmlns="http://www.w3.org/2000/svg">
<path d="M4 0C1.79086 0 0 1.79086 0 4V9H10.5858L8.29289 6.70711C7.90237 6.31658 7.90237 5.68342 8.29289 5.29289C8.68342 4.90237 9.31658 4.90237 9.70711 5.29289L13.7071 9.29289C14.0976 9.68342 14.0976 10.3166 13.7071 10.7071L9.70711 14.7071C9.31658 15.0976 8.68342 15.0976 8.29289 14.7071C7.90237 14.3166 7.90237 13.6834 8.29289 13.2929L10.5858 11H0V16C0 18.2091 1.79086 20 4 20H16C18.2091 20 20 18.2091 20 16V4C20 1.79086 18.2091 0 16 0H4Z" fill="white"/>
</svg>
